<svg width="75" height="75" viewBox="0 0 75 75" fill="none" xmlns="http://www.w3.org/2000/svg">
<path d="M67.6469 47.0248C69.4213 49.392 69.8281 51.6723 69.2593 53.793C68.6583 56.034 66.8469 58.5312 63.4306 60.855C60.0337 63.1656 55.4017 65.0534 49.9371 66.2217C44.4885 67.3866 38.527 67.7681 32.6745 67.3137C26.8166 66.8589 21.3657 65.59 16.8683 63.6902C12.3405 61.7776 9.14101 59.3813 7.32252 56.9342C5.56537 54.5696 5.16967 52.2915 5.75105 50.1688C6.36579 47.9244 8.19465 45.4264 11.6268 43.1061" stroke="black" stroke-width="7"/>
<path d="M67.6466 33.0244C69.4211 35.3916 69.828 37.6718 69.2595 39.7924C68.6587 42.0333 66.8477 44.5304 63.4319 46.8541C60.0355 49.1647 55.404 51.0526 49.9399 52.2211C44.4918 53.3862 38.5305 53.768 32.6782 53.314C26.8204 52.8595 21.3694 51.591 16.8716 49.6916C12.3435 47.7793 9.14335 45.3833 7.32409 42.9363C5.56611 40.5717 5.16982 38.2935 5.75044 36.1711C6.36435 33.9269 8.19206 31.429 11.623 29.1086" stroke="black" stroke-width="7"/>
<path d="M24.2588 6.37C31.0402 4.91093 38.496 4.60971 45.6084 5.50282C46.1295 5.53115 46.6391 5.76153 47.0088 6.18641C47.7334 7.01983 47.6457 8.28289 46.8125 9.0077C45.609 10.0543 46.6507 12.0078 48.1904 11.5917L48.6289 11.4735C51.5362 10.6877 54.545 12.3392 55.4433 15.2138L55.8867 16.6327C56.1746 17.5537 57.098 18.1212 58.0498 17.9628L60.1484 17.6132C63.2302 17.0995 65.8733 19.8288 65.2607 22.8925C65.1923 23.2351 65.5124 23.5282 65.8476 23.4296L70.4355 22.08C71.4952 21.7683 72.6072 22.3748 72.9189 23.4345C72.9742 23.6225 72.9989 23.8123 72.999 23.9989H73C73 24.0051 72.999 24.0113 72.999 24.0175C72.9989 24.0256 72.9992 24.0337 72.999 24.0419C72.9824 27.9681 70.6936 31.8044 66.4218 35.0165C62.1431 38.2338 56.0971 40.6578 49.125 41.9511C42.1529 43.2443 34.6008 43.3426 27.5195 42.2323C20.4381 41.122 14.1793 38.858 9.61325 35.7557C5.04033 32.6487 2.40022 28.8611 2.04196 24.9227C1.68417 20.9877 3.62092 17.079 7.61227 13.746C11.5938 10.4213 17.4124 7.84306 24.2588 6.37ZM42.706 12.2304C36.9752 11.72 31.0831 12.0623 25.7314 13.2138C19.6236 14.5279 14.9588 16.7306 12.0986 19.119C9.28547 21.4682 8.92463 23.31 9.01364 24.2889C9.11682 25.4214 10.0052 27.5593 13.5468 29.9657C17.0425 32.3408 22.2508 34.3212 28.6035 35.3173C34.9101 36.3061 41.6636 36.2162 47.8476 35.0692C54.0869 33.9119 59.0335 31.8139 62.2148 29.4218C63.2207 28.6654 63.9677 27.9479 64.5205 27.2889C62.3916 26.6921 60.8544 24.5308 61.3388 22.1083C61.4026 21.7895 61.1273 21.5052 60.8066 21.5585L58.708 21.9081C55.7864 22.395 52.9529 20.653 52.0693 17.8261L51.6259 16.4071C51.3685 15.5833 50.506 15.1097 49.6728 15.3348L49.2334 15.453C46.1929 16.2747 43.6828 14.5735 42.706 12.2304Z" fill="black"/>
<ellipse cx="23" cy="25.5" rx="4" ry="2.5" fill="black"/>
<ellipse cx="48" cy="28.5" rx="4" ry="2.5" fill="black"/>
<ellipse cx="36" cy="16.5" rx="4" ry="2.5" fill="black"/>
</svg>
