<svg width="96" height="96" viewBox="0 0 96 96" fill="none" xmlns="http://www.w3.org/2000/svg">
<rect width="96" height="96" rx="48" fill="black"/>
<path d="M78.6469 57.0248C80.4213 59.392 80.8281 61.6723 80.2593 63.793C79.6583 66.034 77.8469 68.5312 74.4306 70.855C71.0337 73.1656 66.4017 75.0534 60.9371 76.2217C55.4885 77.3866 49.527 77.7681 43.6745 77.3137C37.8166 76.8589 32.3657 75.59 27.8683 73.6902C23.3405 71.7776 20.141 69.3813 18.3225 66.9342C16.5654 64.5696 16.1697 62.2915 16.7511 60.1688C17.3658 57.9244 19.1946 55.4264 22.6268 53.1061" stroke="white" stroke-width="7"/>
<path d="M78.6466 43.0244C80.4211 45.3916 80.828 47.6718 80.2595 49.7924C79.6587 52.0333 77.8477 54.5304 74.4319 56.8541C71.0355 59.1647 66.404 61.0526 60.9399 62.2211C55.4918 63.3862 49.5305 63.768 43.6782 63.314C37.8204 62.8595 32.3694 61.591 27.8716 59.6916C23.3435 57.7793 20.1434 55.3833 18.3241 52.9363C16.5661 50.5717 16.1698 48.2935 16.7504 46.1711C17.3643 43.9269 19.1921 41.429 22.623 39.1086" stroke="white" stroke-width="7"/>
<path fill-rule="evenodd" clip-rule="evenodd" d="M35.2588 16.37C42.0402 14.9109 49.496 14.6097 56.6084 15.5028C57.1295 15.5311 57.6391 15.7615 58.0088 16.1864C58.7334 17.0198 58.6457 18.2829 57.8125 19.0077C56.609 20.0543 57.6507 22.0078 59.1904 21.5917L59.6289 21.4735C62.5362 20.6877 65.545 22.3392 66.4433 25.2138L66.8867 26.6327C67.1746 27.5537 68.098 28.1212 69.0498 27.9628L71.1484 27.6132C74.2302 27.0995 76.8733 29.8288 76.2607 32.8925C76.1923 33.2351 76.5124 33.5282 76.8476 33.4296L81.4355 32.08C82.4952 31.7683 83.6072 32.3748 83.9189 33.4345C83.9742 33.6225 83.9989 33.8123 83.999 33.9989H84C84 34.0051 83.999 34.0113 83.999 34.0175C83.9989 34.0256 83.9992 34.0337 83.999 34.0419C83.9824 37.9681 81.6936 41.8044 77.4218 45.0165C73.1431 48.2338 67.0971 50.6578 60.125 51.9511C53.1529 53.2443 45.6008 53.3426 38.5195 52.2323C31.4381 51.122 25.1793 48.858 20.6132 45.7557C16.0403 42.6487 13.4002 38.8611 13.042 34.9227C12.6842 30.9877 14.6209 27.079 18.6123 23.746C22.5938 20.4213 28.4124 17.8431 35.2588 16.37ZM53.706 22.2304C47.9752 21.72 42.0831 22.0623 36.7314 23.2138C30.6236 24.5279 25.9588 26.7306 23.0986 29.119C20.2855 31.4682 19.9246 33.31 20.0136 34.2889C20.1168 35.4214 21.0052 37.5593 24.5468 39.9657C28.0425 42.3408 33.2508 44.3212 39.6035 45.3173C45.9101 46.3061 52.6636 46.2162 58.8476 45.0692C65.0869 43.9119 70.0335 41.8139 73.2148 39.4218C74.2207 38.6654 74.9677 37.9479 75.5205 37.2889C73.3916 36.6921 71.8544 34.5308 72.3388 32.1083C72.4026 31.7895 72.1273 31.5052 71.8066 31.5585L69.708 31.9081C66.7864 32.395 63.9529 30.653 63.0693 27.8261L62.6259 26.4071C62.3685 25.5833 61.506 25.1097 60.6728 25.3348L60.2334 25.453C57.1929 26.2747 54.6828 24.5735 53.706 22.2304Z" fill="white"/>
<ellipse cx="34" cy="35.5" rx="4" ry="2.5" fill="white"/>
<ellipse cx="59" cy="38.5" rx="4" ry="2.5" fill="white"/>
<ellipse cx="47" cy="26.5" rx="4" ry="2.5" fill="white"/>
</svg>
